# xmcd CD database file
#
# Track frame offsets:
#	150
#	15805
#	34100
#	57277
#	68455
#	87580
#	110687
#	126552
#	146272
#	160777
#	177370
#	202262
#	217322
#	228277
#	242090
#
# Disc length: 3454 seconds
#
# Revision: 0
# Processed by: cddbd v1.5.1PL2 Copyright (c) Steve Scherf et al.
# Submitted via: CDex 1.51
#
DISCID=d50d7c0f
DTITLE=Celso Blues Boy - Sem Limite (Disco 1)
DYEAR=2001
DGENRE=Blues
TTITLE0=Aumenta Que Isso Aí É Rock And Roll (Ao Vivo)
TTITLE1=Qum Entende (I Can´t Stand It)
TTITLE2=Sempre Brilhará
TTITLE3=Me Diga o que É o Amor
TTITLE4=Rock Fora da Lei
TTITLE5=Isso e Nada Mais
TTITLE6=Marginal
TTITLE7=Vem Buscar o que Sobrou
TTITLE8=Filhos da Bomba
TTITLE9=Alune
TTITLE10=De Um Jeito Blues (Ao Vivo)
TTITLE11=D-Natural Blues (Instrumental)
TTITLE12=Tempos Difíceis (Ao Vivo)
TTITLE13=A Isso Chamam Blues (Ao Vivo)
TTITLE14=Damas da Noite (Ao Vivo)
EXTD=YEAR: 2001
EXTT0=
EXTT1=
EXTT2=
EXTT3=
EXTT4=
EXTT5=
EXTT6=
EXTT7=
EXTT8=
EXTT9=
EXTT10=
EXTT11=
EXTT12=
EXTT13=
EXTT14=
PLAYORDER=
